Coordinates
version=1
nRows=65
nColumns=12
inDegrees=yes

Units are S.I. units (second, meters, Newtons, ...)
Angles are in degrees

endheader
time	SC_y	SC_z	SC_x	AC_y	AC_z	AC_x	GH_y	GH_z	GH_yy	EL_x	PS_y
       0.0              -32.48          31.83          27.86          37.63          5.677         -14.84         -88.03          62.34          26.11          42.96          55.31
   0.04963              -32.49          31.83          27.86          37.63          5.676         -14.84         -88.01          62.33          26.08          42.98          55.31
   0.09926              -32.49          31.83          27.87          37.64          5.674         -14.84          -88.0          62.33          26.05          42.99          55.31
    0.1489              -32.49          31.83          27.88          37.64          5.672         -14.83         -87.98          62.32          26.02           43.0          55.31
    0.1985              -32.49          31.83          27.89          37.65           5.67         -14.83         -87.96          62.32          25.99          43.02          55.32
    0.2481              -32.49          31.83           27.9          37.65          5.668         -14.83         -87.94          62.31          25.95          43.03          55.32
    0.2978              -32.49          31.83          27.91          37.65          5.665         -14.82         -87.92          62.31          25.91          43.05          55.32
    0.3474               -32.5          31.83          27.92          37.66          5.663         -14.82          -87.9           62.3          25.87          43.07          55.32
     0.397               -32.5          31.83          27.93          37.67           5.66         -14.82         -87.87          62.29          25.83          43.09          55.32
    0.4467               -32.5          31.83          27.94          37.67          5.657         -14.81         -87.85          62.29          25.78          43.11          55.32
    0.4963               -32.5          31.83          27.96          37.68          5.654         -14.81         -87.82          62.28          25.74          43.13          55.32
    0.5459              -32.51          31.83          27.97          37.68          5.651          -14.8         -87.79          62.27          25.68          43.15          55.32
    0.5956              -32.51          31.83          27.99          37.69          5.647          -14.8         -87.76          62.26          25.62          43.18          55.32
    0.6452              -32.51          31.83           28.0           37.7          5.644         -14.79         -87.72          62.25          25.56           43.2          55.33
    0.6948              -32.51          31.83          28.02          37.71          5.639         -14.79         -87.69          62.24          25.49          43.23          55.33
    0.7444              -32.52          31.83          28.04          37.72          5.635         -14.78         -87.64          62.23          25.42          43.26          55.33
    0.7941              -32.52          31.83          28.06          37.73           5.63         -14.77          -87.6          62.22          25.34           43.3          55.33
    0.8437              -32.53          31.83          28.08          37.74          5.625         -14.76         -87.55           62.2          25.26          43.34          55.33
    0.8933              -32.53          31.83          28.11          37.75          5.619         -14.76          -87.5          62.19          25.16          43.38          55.33
     0.943              -32.54          31.83          28.13          37.76          5.612         -14.75         -87.44          62.17          25.06          43.42          55.34
    0.9926              -32.54          31.83          28.16          37.78          5.605         -14.74         -87.38          62.15          24.94          43.47          55.34
     1.042              -32.55          31.83           28.2          37.79          5.598         -14.72         -87.31          62.13          24.82          43.53          55.34
     1.092              -32.55          31.83          28.23          37.81          5.589         -14.71         -87.23          62.11          24.68          43.59          55.35
     1.141              -32.56          31.82          28.27          37.83           5.58          -14.7         -87.14          62.09          24.53          43.65          55.35
     1.191              -32.57          31.82          28.32          37.85          5.569         -14.68         -87.05          62.06          24.36          43.73          55.35
     1.241              -32.58          31.82          28.37          37.88          5.557         -14.66         -86.94          62.03          24.17          43.81          55.36
      1.29              -32.59          31.82          28.43          37.91          5.544         -14.64         -86.82           62.0          23.96           43.9          55.36
      1.34               -32.6          31.82          28.49          37.94          5.529         -14.62         -86.69          61.96          23.72          44.01          55.37
      1.39              -32.61          31.82          28.56          37.97          5.513          -14.6         -86.54          61.92          23.45          44.13          55.38
     1.439              -32.63          31.82          28.64          38.01          5.494         -14.57         -86.36          61.87          23.14          44.26          55.38
     1.489              -32.65          31.82          28.73          38.05          5.472         -14.54         -86.17          61.81          22.79          44.41          55.39
     1.539              -32.67          31.81          28.84          38.11          5.447          -14.5         -85.94          61.75          22.39          44.59           55.4
     1.588              -32.69          31.81          28.96          38.17          5.418         -14.46         -85.68          61.67          21.92          44.79          55.41
     1.638              -32.71          31.81           29.1          38.23          5.385         -14.41         -85.38          61.59          21.38          45.02          55.42
     1.687              -32.74          31.81          29.27          38.31          5.346         -14.35         -85.02          61.49          20.75           45.3          55.44
     1.737              -32.78           31.8          29.47          38.41            5.3         -14.28         -84.61          61.37          20.01          45.62          55.46
     1.787              -32.82           31.8           29.7          38.52          5.245          -14.2         -84.11          61.23          19.13          46.01          55.48
     1.836              -32.88          31.79          29.98          38.66           5.18         -14.11         -83.51          61.06          18.07          46.47           55.5
     1.886              -32.94          31.79          30.32          38.82            5.1         -13.99          -82.8          60.86          16.78          47.03          55.53
     1.936              -33.01          31.78          30.73          39.02          5.003         -13.85         -81.92          60.61          15.22          47.71          55.57
     1.985              -33.11          31.77          31.24          39.27          4.884         -13.67         -80.83           60.3          13.29          48.55          55.62
     2.035              -33.22          31.76          31.87          39.58          4.735         -13.45         -79.48          59.92          10.88           49.6          55.68
     2.084              -33.37          31.75          32.68          39.97          4.547         -13.17         -77.77          59.44          7.841          50.93          55.75
     2.134              -33.56          31.73          33.69          40.46          4.308         -12.82         -75.61          58.82          3.982          52.61          55.84
     2.184               -33.8           31.7           35.0          41.09          4.002         -12.37         -72.84          58.04        -0.9566          54.76          55.96
     2.233              -34.11          31.67          36.67           41.9           3.61         -11.79         -69.28          57.03         -7.295          57.53          56.11
     2.283               -34.5          31.64           38.8          42.94          3.109         -11.05         -64.73          55.74         -15.39          61.05           56.3
     2.333              -34.99          31.59          41.49          44.24          2.478         -10.12         -59.02          54.13         -25.57          65.49          56.54
     2.382               -35.6          31.53          44.76          45.83          1.711         -8.981         -52.05          52.15         -37.98           70.9          56.84
     2.432              -36.29          31.46          48.55          47.66         0.8205         -7.665         -43.98          49.87         -52.36          77.17          57.18
     2.481              -37.05          31.39          52.66          49.66        -0.1432         -6.241         -35.24          47.39         -67.93          83.96          57.55
     2.531               -37.8          31.32          56.76          51.65         -1.107         -4.817          -26.5          44.92          -83.5          90.74          57.92
     2.581               -38.5          31.25          60.55          53.49         -1.997         -3.502         -18.42          42.63         -97.88          97.01          58.27
      2.63               -39.1          31.19          63.83          55.07         -2.765         -2.367         -11.46          40.66         -110.3          102.4          58.56
      2.68               -39.6          31.14          66.51          56.37         -3.395         -1.436         -5.744          39.04         -120.5          106.9          58.81
      2.73              -39.99           31.1          68.65          57.41         -3.896        -0.6959         -1.198          37.76         -128.6          110.4           59.0
     2.779               -40.3          31.07          70.32          58.22         -4.289        -0.1162           2.36          36.75         -134.9          113.1          59.15
     2.829              -40.54          31.05          71.62          58.85         -4.594         0.3355          5.133          35.96         -139.8          115.3          59.27
     2.878              -40.73          31.03          72.64          59.34         -4.833         0.6885          7.299          35.35         -143.7          117.0          59.36
     2.928              -40.87          31.02          73.44          59.73         -5.021         0.9661          9.003          34.87         -146.7          118.3          59.43
     2.978              -40.99          31.01          74.07          60.04          -5.17          1.186          10.36          34.49         -149.1          119.4          59.49
     3.027              -41.08           31.0          74.58          60.29          -5.29          1.363          11.44          34.18         -151.1          120.2          59.54
     3.077              -41.16          30.99           75.0          60.49         -5.387          1.506          12.32          33.93         -152.6          120.9          59.57
     3.127              -41.22          30.98          75.33          60.65         -5.466          1.624          13.04          33.73         -153.9          121.4           59.6
     3.176              -41.27          30.98          75.61          60.79         -5.532          1.721          13.63          33.56         -155.0          121.9          59.63
